<svg xmlns="http://www.w3.org/2000/svg" viewBox="0 0 1536 1024" width="100%" height="100%">
  <path d="M 469.0,374.2 L 462.0,373.2 L 448.0,374.4 L 443.0,373.1 L 432.0,373.2 L 427.0,371.0 L 426.4,370.0 L 428.4,367.0 L 428.4,345.0 L 424.9,335.0 L 423.1,332.0 L 422.0,331.4 L 417.0,332.0 L 415.8,330.0 L 414.0,328.9 L 407.0,328.5 L 362.0,328.7 L 360.8,330.0 L 360.6,333.0 L 360.5,365.0 L 361.4,368.0 L 359.8,372.0 L 357.0,374.4 L 356.0,374.5 L 354.0,373.4 L 350.0,374.5 L 346.0,373.2 L 342.0,373.9 L 339.0,373.1 L 332.0,373.3 L 330.0,372.8 L 326.0,374.0 L 321.0,372.6 L 316.0,374.0 L 315.0,373.4 L 313.2,366.0 L 314.2,361.0 L 313.5,358.0 L 314.2,354.0 L 313.0,350.0 L 314.0,347.0 L 313.5,339.0 L 314.0,334.0 L 313.0,331.0 L 314.0,326.0 L 313.0,322.0 L 313.5,318.0 L 312.9,313.0 L 313.5,310.0 L 313.5,290.0 L 312.9,284.0 L 313.7,281.0 L 313.1,277.0 L 314.2,274.0 L 314.2,266.0 L 313.1,263.0 L 314.2,259.0 L 313.8,253.0 L 314.4,250.0 L 313.8,245.0 L 314.3,242.0 L 313.6,237.0 L 315.0,235.0 L 317.0,233.0 L 320.0,234.2 L 326.0,234.5 L 334.0,233.5 L 339.0,234.0 L 343.0,233.5 L 366.0,233.5 L 369.0,232.5 L 372.0,233.2 L 374.0,232.9 L 385.0,234.0 L 391.0,233.4 L 394.0,231.8 L 399.0,233.5 L 412.0,234.0 L 426.0,233.5 L 434.0,234.4 L 442.0,236.1 L 452.0,240.1 L 454.0,240.2 L 463.0,246.5 L 470.0,254.0 L 474.7,264.0 L 475.9,271.0 L 475.7,277.0 L 474.0,285.0 L 470.2,293.0 L 465.8,299.0 L 456.0,305.4 L 453.8,309.0 L 454.3,310.0 L 460.0,312.7 L 464.5,316.0 L 469.2,322.0 L 473.6,331.0 L 473.6,334.0 L 474.9,339.0 L 474.7,346.0 L 476.4,349.0 L 474.8,352.0 L 474.6,354.0 L 475.9,361.0 L 477.0,363.0 L 476.9,366.0 L 478.8,369.0 L 477.0,372.3 L 472.0,372.7 L 469.0,374.2 Z M 1103.0,375.0 L 1098.0,374.8 L 1094.0,375.7 L 1090.0,374.5 L 1074.0,374.5 L 1070.0,375.1 L 1050.0,374.0 L 1045.0,375.3 L 1040.0,374.4 L 1038.0,372.0 L 1032.0,371.3 L 1026.0,368.0 L 1017.0,364.9 L 1003.0,355.0 L 1002.1,352.0 L 1000.0,349.9 L 999.0,349.5 L 995.4,350.0 L 995.0,347.0 L 995.8,343.0 L 993.4,339.0 L 993.8,337.0 L 991.7,325.0 L 993.0,322.8 L 998.0,320.1 L 999.6,322.0 L 1001.0,322.2 L 1014.0,321.4 L 1017.0,320.5 L 1019.0,321.4 L 1025.0,322.0 L 1029.0,321.5 L 1033.0,322.2 L 1038.0,320.7 L 1038.7,318.0 L 1038.0,317.2 L 1036.0,318.0 L 1033.0,317.5 L 1030.0,315.1 L 1026.0,314.3 L 1025.5,313.0 L 1024.0,311.9 L 1010.9,307.0 L 1009.9,306.0 L 1009.4,304.0 L 1007.0,301.8 L 1006.0,301.4 L 1004.0,301.9 L 1003.0,301.3 L 1002.8,299.0 L 1000.7,294.0 L 1000.0,293.2 L 997.8,293.0 L 996.7,292.0 L 996.3,288.0 L 994.5,286.0 L 993.1,283.0 L 995.3,280.0 L 994.2,276.0 L 996.2,272.0 L 995.7,270.0 L 994.0,268.2 L 993.2,266.0 L 997.8,263.0 L 998.1,260.0 L 1003.0,254.3 L 1005.5,250.0 L 1009.0,246.8 L 1017.0,241.9 L 1024.0,238.8 L 1030.1,237.0 L 1033.3,234.0 L 1039.0,234.7 L 1046.0,231.8 L 1051.0,233.2 L 1057.0,232.2 L 1083.0,232.5 L 1088.0,232.0 L 1091.0,232.8 L 1100.0,233.2 L 1103.0,232.5 L 1107.2,235.0 L 1110.0,235.3 L 1113.0,234.7 L 1116.0,235.6 L 1122.0,239.2 L 1126.0,239.3 L 1129.0,241.4 L 1131.0,240.7 L 1134.0,240.8 L 1134.6,242.0 L 1134.1,244.0 L 1134.6,245.0 L 1141.0,249.2 L 1142.5,252.0 L 1147.0,256.7 L 1152.4,268.0 L 1153.9,279.0 L 1153.0,280.9 L 1152.0,281.4 L 1145.0,281.6 L 1141.0,282.6 L 1137.0,281.6 L 1125.0,282.2 L 1122.0,281.6 L 1119.0,282.7 L 1115.0,281.8 L 1106.0,282.5 L 1102.2,273.0 L 1098.0,269.9 L 1094.0,267.9 L 1091.0,268.7 L 1087.0,268.4 L 1085.8,268.0 L 1084.0,266.0 L 1082.0,267.0 L 1080.0,267.0 L 1076.0,264.8 L 1073.0,265.0 L 1070.0,266.6 L 1064.0,265.8 L 1060.0,268.2 L 1057.0,266.6 L 1054.0,266.9 L 1049.0,268.3 L 1045.9,271.0 L 1045.7,276.0 L 1048.0,279.0 L 1052.0,280.4 L 1057.0,280.5 L 1061.0,279.7 L 1064.0,281.6 L 1068.0,281.4 L 1070.0,280.5 L 1082.0,283.9 L 1085.6,283.0 L 1088.0,280.6 L 1093.0,280.4 L 1095.0,281.2 L 1098.0,285.1 L 1101.0,284.3 L 1113.0,287.4 L 1118.0,286.8 L 1120.0,288.0 L 1124.0,288.5 L 1126.0,287.8 L 1127.7,291.0 L 1133.0,292.0 L 1136.6,295.0 L 1141.9,297.0 L 1146.0,300.2 L 1152.8,306.0 L 1156.8,313.0 L 1159.4,322.0 L 1159.5,334.0 L 1157.6,343.0 L 1156.0,347.0 L 1146.0,357.5 L 1142.0,360.7 L 1141.0,363.1 L 1128.0,367.9 L 1125.0,372.0 L 1123.0,370.7 L 1122.0,370.9 L 1118.5,373.0 L 1117.0,374.7 L 1116.0,374.8 L 1109.0,373.0 L 1103.0,375.0 Z M 709.0,375.1 L 700.0,373.5 L 690.0,373.0 L 686.0,374.3 L 682.0,373.5 L 678.0,374.4 L 674.0,373.2 L 669.0,374.2 L 662.0,373.2 L 658.0,374.3 L 641.0,374.4 L 638.0,373.8 L 636.0,374.4 L 634.0,374.0 L 624.0,374.4 L 620.0,373.6 L 617.0,374.1 L 614.0,373.0 L 600.0,373.2 L 595.0,372.4 L 592.1,370.0 L 591.6,368.0 L 591.6,355.0 L 592.2,350.0 L 591.6,331.0 L 592.5,321.0 L 591.5,315.0 L 591.5,304.0 L 592.2,297.0 L 591.7,292.0 L 591.6,256.0 L 592.2,249.0 L 591.9,244.0 L 593.0,240.3 L 593.0,237.0 L 594.0,235.0 L 597.0,233.5 L 601.0,234.3 L 607.0,233.5 L 617.0,234.0 L 622.0,233.0 L 625.0,234.0 L 638.0,232.9 L 646.0,233.5 L 657.0,232.9 L 661.0,233.5 L 684.0,233.5 L 687.0,232.9 L 690.0,233.5 L 701.0,233.5 L 705.0,232.9 L 709.5,234.0 L 720.0,234.6 L 728.0,236.4 L 732.0,236.5 L 737.0,239.2 L 745.0,241.4 L 754.3,250.0 L 758.2,257.0 L 760.2,264.0 L 760.2,275.0 L 759.2,279.0 L 756.0,286.0 L 750.9,292.0 L 750.0,294.6 L 747.0,295.0 L 743.0,296.9 L 742.9,298.0 L 746.0,297.5 L 749.0,298.0 L 751.0,300.8 L 758.4,304.0 L 765.0,313.0 L 768.4,323.0 L 768.5,336.0 L 767.2,342.0 L 765.3,347.0 L 760.4,354.0 L 754.0,360.4 L 746.0,366.4 L 738.0,368.5 L 729.0,372.5 L 725.0,372.0 L 723.0,373.7 L 721.0,373.2 L 714.0,373.4 L 709.0,375.1 Z M 556.0,375.1 L 551.0,373.9 L 548.0,374.6 L 540.0,373.9 L 537.0,372.9 L 530.0,374.4 L 521.0,374.3 L 515.0,373.3 L 513.0,372.4 L 511.9,371.0 L 511.6,369.0 L 512.5,364.0 L 511.8,355.0 L 512.5,349.0 L 511.8,337.0 L 511.8,329.0 L 512.5,324.0 L 512.2,249.0 L 512.5,237.0 L 513.0,235.3 L 514.0,234.4 L 526.0,233.6 L 531.0,234.3 L 534.0,233.7 L 550.0,233.5 L 558.0,234.3 L 560.2,237.0 L 559.7,247.0 L 560.5,253.0 L 559.5,262.0 L 560.0,267.0 L 559.5,285.0 L 560.3,292.0 L 559.6,302.0 L 560.4,306.0 L 559.6,311.0 L 559.7,327.0 L 560.3,332.0 L 559.7,335.0 L 560.5,340.0 L 559.5,358.0 L 560.2,367.0 L 559.0,373.3 L 558.0,374.4 L 556.0,375.1 Z M 973.0,375.1 L 969.0,374.4 L 961.0,374.4 L 959.0,373.6 L 948.0,374.5 L 943.0,374.0 L 933.0,374.4 L 931.0,372.0 L 928.8,371.0 L 928.2,366.0 L 926.1,363.0 L 925.0,359.8 L 922.2,357.0 L 922.1,353.0 L 920.5,350.0 L 919.0,348.9 L 914.0,348.8 L 908.0,349.2 L 905.0,348.6 L 900.0,349.6 L 897.0,349.1 L 894.0,350.8 L 891.0,349.5 L 886.0,348.7 L 882.0,350.0 L 879.0,348.8 L 873.0,348.7 L 870.0,348.8 L 868.0,350.3 L 865.0,350.4 L 862.0,349.2 L 855.0,349.7 L 853.0,350.9 L 850.0,350.2 L 845.5,352.0 L 843.7,358.0 L 840.8,362.0 L 837.1,371.0 L 835.5,373.0 L 833.0,374.8 L 825.0,373.3 L 821.0,374.7 L 815.0,373.7 L 811.0,374.1 L 806.0,372.8 L 802.0,372.7 L 800.3,373.0 L 798.0,374.5 L 796.0,372.9 L 793.0,372.7 L 792.1,372.0 L 791.6,370.0 L 792.5,367.0 L 795.2,363.0 L 796.9,358.0 L 812.2,327.0 L 816.1,318.0 L 816.7,313.0 L 818.0,312.5 L 821.7,307.0 L 824.2,302.0 L 825.0,296.0 L 828.7,290.0 L 830.7,288.0 L 832.0,282.6 L 834.2,279.0 L 835.5,274.0 L 839.2,270.0 L 841.2,266.0 L 842.6,261.0 L 848.7,250.0 L 848.9,247.0 L 852.7,241.0 L 853.7,238.0 L 856.0,235.1 L 858.0,234.5 L 870.0,233.9 L 874.0,234.5 L 887.0,233.5 L 894.0,233.5 L 901.0,234.4 L 911.0,234.3 L 912.0,235.0 L 921.9,255.0 L 926.0,258.4 L 925.4,261.0 L 928.9,270.0 L 931.0,273.8 L 932.0,274.5 L 933.0,274.1 L 933.9,275.0 L 934.8,282.0 L 938.0,288.2 L 942.0,292.0 L 942.6,294.0 L 942.2,296.0 L 943.0,298.4 L 947.0,304.0 L 949.6,305.0 L 950.3,306.0 L 949.2,308.0 L 950.8,315.0 L 952.8,319.0 L 955.0,321.0 L 956.0,325.0 L 962.0,338.0 L 964.7,342.0 L 965.4,345.0 L 967.7,350.0 L 970.0,353.7 L 972.0,354.5 L 975.0,357.4 L 975.2,359.0 L 973.7,361.0 L 973.7,362.0 L 976.3,368.0 L 977.1,372.0 L 975.0,374.2 L 973.0,375.1 Z M 686.8,285.0 L 697.0,283.9 L 705.0,283.9 L 706.4,283.0 L 707.0,281.1 L 710.0,280.9 L 712.0,279.0 L 711.6,272.0 L 710.0,270.2 L 701.0,267.2 L 696.0,268.0 L 690.0,267.5 L 687.0,268.3 L 682.0,266.6 L 677.0,267.2 L 664.0,266.5 L 659.0,267.4 L 656.0,266.6 L 647.0,266.3 L 645.0,266.6 L 644.0,267.4 L 643.6,273.0 L 644.1,278.0 L 645.2,281.0 L 648.0,283.7 L 655.0,284.2 L 658.0,283.3 L 660.8,285.0 L 663.0,285.5 L 669.0,285.0 L 674.0,283.7 L 677.0,284.6 L 680.0,284.2 L 686.8,285.0 Z M 413.5,293.0 L 420.0,292.0 L 427.0,287.4 L 428.4,285.0 L 428.7,279.0 L 427.1,275.0 L 424.8,272.0 L 420.2,271.0 L 418.4,269.0 L 416.0,269.1 L 412.0,267.8 L 404.0,269.8 L 398.0,267.8 L 395.0,267.5 L 374.0,267.8 L 371.0,269.1 L 365.0,267.6 L 362.0,268.2 L 361.0,269.1 L 360.5,272.0 L 360.5,289.0 L 360.8,292.0 L 362.0,293.3 L 365.0,293.4 L 370.0,291.8 L 378.0,292.0 L 382.0,293.1 L 390.0,293.4 L 413.5,293.0 Z M 881.3,314.0 L 884.0,313.0 L 889.0,313.5 L 893.0,312.5 L 895.0,313.2 L 900.0,312.0 L 898.0,309.6 L 897.8,306.0 L 896.2,301.0 L 890.2,290.0 L 889.0,289.0 L 888.9,285.0 L 888.2,283.0 L 885.0,278.1 L 884.0,277.5 L 881.0,278.6 L 879.8,280.0 L 875.7,291.0 L 873.3,294.0 L 867.1,308.0 L 868.1,311.0 L 871.0,313.2 L 881.3,314.0 Z M 660.4,339.0 L 674.0,338.3 L 678.0,336.6 L 681.0,338.3 L 691.0,338.8 L 699.0,338.4 L 702.0,337.6 L 710.0,338.3 L 713.0,336.7 L 716.0,336.1 L 718.4,334.0 L 720.0,326.0 L 719.0,323.3 L 717.2,321.0 L 712.0,318.6 L 704.0,318.3 L 701.0,319.2 L 698.0,317.9 L 693.0,319.0 L 689.0,317.6 L 683.0,318.1 L 680.0,317.9 L 677.0,316.9 L 672.0,318.1 L 669.0,317.4 L 664.0,318.1 L 662.0,316.9 L 657.0,318.4 L 652.0,317.5 L 646.0,317.8 L 644.4,320.0 L 643.9,323.0 L 643.5,331.0 L 644.0,337.1 L 645.0,338.1 L 648.0,339.1 L 660.4,339.0 Z M 1078.2,341.0 L 1083.0,339.5 L 1089.0,340.6 L 1089.3,338.0 L 1090.0,337.1 L 1093.0,335.9 L 1097.0,336.5 L 1099.0,335.9 L 1107.0,335.6 L 1108.1,334.0 L 1109.0,330.8 L 1107.7,328.0 L 1106.0,326.7 L 1101.5,327.0 L 1098.0,324.4 L 1094.0,326.1 L 1093.0,324.9 L 1089.0,324.0 L 1086.0,321.8 L 1068.0,320.4 L 1065.0,319.6 L 1059.0,319.4 L 1049.0,317.8 L 1043.6,321.0 L 1045.0,321.4 L 1046.6,326.0 L 1045.1,329.0 L 1045.2,330.0 L 1046.7,333.0 L 1049.0,335.2 L 1055.0,337.4 L 1057.0,336.9 L 1059.0,338.4 L 1063.0,338.7 L 1064.0,338.7 L 1067.0,336.0 L 1070.0,335.8 L 1071.0,337.0 L 1070.8,339.0 L 1071.4,340.0 L 1078.2,341.0 Z M 597.0,550.2 L 591.0,550.0 L 588.0,550.8 L 585.0,549.7 L 581.0,550.4 L 567.0,548.6 L 566.0,548.6 L 564.0,550.2 L 563.0,550.1 L 560.0,547.2 L 554.0,546.2 L 553.2,545.0 L 551.4,544.0 L 548.0,542.8 L 545.0,542.6 L 542.0,540.4 L 539.0,539.6 L 528.7,533.0 L 520.0,525.6 L 513.8,522.0 L 512.1,517.0 L 509.9,514.0 L 506.4,507.0 L 502.0,493.7 L 499.4,491.0 L 499.4,490.0 L 501.1,488.0 L 501.1,487.0 L 498.8,483.0 L 500.3,479.0 L 499.6,475.0 L 501.2,472.0 L 500.5,467.0 L 502.0,465.0 L 505.6,452.0 L 508.1,447.0 L 508.8,444.0 L 511.0,442.3 L 515.1,436.0 L 524.4,427.0 L 533.0,420.8 L 544.0,414.3 L 552.0,412.2 L 560.0,409.1 L 569.0,408.4 L 572.0,407.6 L 582.0,407.4 L 586.0,406.5 L 613.0,408.6 L 626.0,411.0 L 632.0,414.1 L 638.0,415.8 L 657.0,427.9 L 668.0,439.7 L 675.2,451.0 L 677.5,456.0 L 680.4,468.0 L 680.4,490.0 L 676.7,504.0 L 668.7,518.0 L 657.0,529.4 L 652.0,533.6 L 645.9,537.0 L 642.8,540.0 L 617.0,548.2 L 612.0,548.9 L 608.0,548.6 L 597.0,550.2 Z M 318.0,546.6 L 317.0,547.0 L 316.0,546.4 L 313.4,544.0 L 313.9,542.0 L 313.5,538.0 L 314.0,534.0 L 313.5,528.0 L 313.5,517.0 L 314.0,514.0 L 313.5,510.0 L 314.0,498.0 L 313.5,490.0 L 314.0,486.0 L 313.0,481.0 L 314.0,478.0 L 314.0,470.0 L 313.0,462.0 L 314.2,455.0 L 314.4,450.0 L 313.5,435.0 L 314.1,430.0 L 313.7,424.0 L 314.3,413.0 L 315.0,410.0 L 316.0,408.9 L 329.0,409.4 L 336.0,408.5 L 348.0,409.5 L 356.0,408.5 L 358.0,408.7 L 360.2,410.0 L 361.1,412.0 L 360.5,418.0 L 360.6,454.0 L 361.9,458.0 L 365.0,458.5 L 381.0,457.8 L 384.0,458.2 L 389.0,457.5 L 394.0,458.1 L 406.0,457.9 L 410.0,458.5 L 421.0,457.7 L 425.0,458.3 L 429.9,458.0 L 430.8,457.0 L 431.5,454.0 L 431.5,416.0 L 431.7,411.0 L 433.0,408.9 L 438.0,408.0 L 443.0,409.0 L 454.0,408.7 L 460.0,409.5 L 467.0,408.9 L 469.0,408.1 L 476.0,407.9 L 479.0,409.0 L 479.5,412.0 L 479.8,435.0 L 479.5,478.0 L 480.5,485.0 L 479.5,494.0 L 480.5,501.0 L 479.5,512.0 L 480.3,524.0 L 479.5,528.0 L 480.3,532.0 L 479.5,536.0 L 479.7,544.0 L 479.0,545.1 L 477.0,546.0 L 471.0,545.5 L 438.0,545.9 L 432.0,545.3 L 431.3,544.0 L 431.5,497.0 L 431.0,495.4 L 430.0,494.7 L 425.0,494.6 L 422.0,495.3 L 418.0,494.5 L 409.0,494.5 L 406.0,495.1 L 394.0,494.5 L 389.0,495.2 L 385.0,494.5 L 374.0,495.0 L 364.0,494.5 L 361.4,495.0 L 360.5,497.0 L 361.0,510.0 L 360.5,532.0 L 361.1,536.0 L 360.5,539.0 L 360.7,544.0 L 360.0,545.0 L 353.0,545.8 L 322.0,545.5 L 318.0,546.6 Z M 782.0,545.5 L 746.0,545.7 L 737.0,545.5 L 735.0,544.6 L 734.5,542.0 L 734.3,448.0 L 733.4,447.0 L 731.0,446.6 L 726.0,447.4 L 722.0,446.6 L 717.0,447.4 L 712.0,446.5 L 693.0,447.3 L 684.0,445.7 L 683.2,444.0 L 683.5,412.0 L 684.0,410.2 L 685.0,409.2 L 688.0,408.5 L 707.0,408.5 L 711.0,409.0 L 720.0,408.0 L 724.0,408.5 L 737.0,408.0 L 744.0,408.5 L 752.0,407.7 L 763.0,408.5 L 775.0,408.0 L 779.0,408.5 L 796.0,408.5 L 800.0,408.0 L 807.0,408.9 L 809.0,408.1 L 820.0,408.5 L 824.0,407.8 L 827.0,408.5 L 833.0,408.2 L 835.4,411.0 L 836.3,413.0 L 835.5,423.0 L 836.2,427.0 L 835.8,439.0 L 836.7,442.0 L 835.0,445.1 L 831.0,447.2 L 825.0,446.5 L 821.0,447.3 L 817.0,446.5 L 787.0,446.6 L 785.0,446.9 L 783.9,448.0 L 783.5,451.0 L 783.5,542.0 L 783.1,544.0 L 782.0,545.5 Z M 989.0,547.0 L 987.4,546.0 L 984.0,545.6 L 972.0,546.0 L 962.0,545.5 L 878.0,545.9 L 857.0,545.6 L 855.2,545.0 L 854.5,542.0 L 854.3,501.0 L 854.5,413.0 L 855.2,410.0 L 857.0,408.9 L 859.3,409.0 L 863.0,408.0 L 867.0,408.5 L 908.0,408.5 L 913.0,407.8 L 916.0,408.5 L 920.0,408.0 L 924.0,408.5 L 937.0,408.0 L 941.0,408.5 L 950.0,407.5 L 955.0,408.5 L 980.0,408.5 L 984.0,409.0 L 988.0,408.5 L 990.0,409.3 L 991.0,411.0 L 990.5,416.0 L 991.0,441.0 L 990.0,444.9 L 989.0,446.2 L 985.0,446.4 L 982.0,445.0 L 979.9,446.0 L 974.0,446.5 L 962.0,446.5 L 958.0,445.2 L 946.0,446.7 L 943.0,446.0 L 940.0,446.5 L 923.0,446.5 L 919.0,445.6 L 908.0,446.3 L 905.0,445.9 L 903.0,447.0 L 902.6,448.0 L 902.5,455.0 L 902.9,458.0 L 904.0,458.6 L 928.0,458.4 L 933.0,457.7 L 937.0,458.4 L 944.0,458.4 L 949.0,457.5 L 952.0,458.4 L 964.0,458.2 L 966.0,457.5 L 969.0,458.4 L 973.0,456.9 L 976.0,458.3 L 978.0,458.4 L 983.0,458.2 L 986.0,457.1 L 989.1,462.0 L 988.0,464.0 L 987.6,470.0 L 989.3,476.0 L 988.6,481.0 L 989.2,486.0 L 991.2,492.0 L 991.1,494.0 L 990.0,494.9 L 988.0,493.3 L 985.0,495.1 L 981.0,495.3 L 978.0,494.8 L 973.0,495.4 L 970.0,494.8 L 966.0,495.4 L 962.0,494.9 L 959.0,495.5 L 949.0,495.5 L 944.0,494.8 L 940.0,495.5 L 926.0,495.5 L 921.0,495.0 L 917.0,495.4 L 913.0,494.4 L 910.0,495.1 L 905.0,494.6 L 903.0,495.5 L 902.4,497.0 L 902.7,509.0 L 904.0,511.2 L 909.0,511.8 L 989.0,511.5 L 995.0,513.3 L 998.0,511.9 L 998.9,513.0 L 998.1,517.0 L 997.0,518.5 L 994.2,520.0 L 993.7,522.0 L 994.0,524.0 L 995.0,524.1 L 997.0,521.6 L 998.0,522.7 L 998.1,524.0 L 997.0,525.4 L 995.0,526.2 L 993.6,530.0 L 994.0,532.4 L 995.0,532.7 L 997.0,529.7 L 997.4,530.0 L 998.1,531.0 L 998.3,534.0 L 997.0,535.4 L 995.0,534.8 L 994.0,535.3 L 993.6,538.0 L 994.0,540.3 L 996.2,541.0 L 995.0,541.8 L 993.0,544.9 L 989.0,547.0 Z M 1044.0,550.2 L 1043.0,549.6 L 1042.6,547.0 L 1041.0,545.9 L 1026.0,545.8 L 1024.0,546.1 L 1021.0,547.6 L 1017.8,547.0 L 1017.0,546.4 L 1015.7,542.0 L 1015.5,528.0 L 1016.1,518.0 L 1015.5,510.0 L 1015.5,478.0 L 1016.1,462.0 L 1015.6,456.0 L 1016.2,450.0 L 1015.6,447.0 L 1015.5,430.0 L 1016.0,417.1 L 1017.3,411.0 L 1021.0,408.6 L 1028.0,409.1 L 1040.0,407.8 L 1051.0,409.5 L 1064.0,408.0 L 1067.0,409.0 L 1070.0,411.3 L 1070.2,412.0 L 1070.0,414.3 L 1068.0,418.0 L 1069.2,432.0 L 1068.5,439.0 L 1069.2,451.0 L 1068.5,462.0 L 1068.7,466.0 L 1069.6,468.0 L 1068.5,473.0 L 1069.2,479.0 L 1068.6,482.0 L 1069.2,498.0 L 1068.5,504.0 L 1069.9,510.0 L 1073.0,511.4 L 1083.0,512.1 L 1088.0,511.5 L 1142.0,511.5 L 1146.0,512.1 L 1153.0,511.7 L 1154.6,513.0 L 1155.3,516.0 L 1154.7,521.0 L 1155.4,525.0 L 1155.0,528.0 L 1155.9,534.0 L 1154.6,537.0 L 1154.7,544.0 L 1154.0,545.2 L 1152.0,545.9 L 1116.0,545.7 L 1112.0,546.3 L 1109.0,545.5 L 1103.0,546.0 L 1102.0,546.5 L 1099.0,545.7 L 1094.8,546.0 L 1092.0,547.7 L 1089.3,546.0 L 1084.0,545.6 L 1073.0,545.5 L 1069.0,546.3 L 1065.0,545.6 L 1048.0,545.6 L 1046.0,546.2 L 1044.0,550.2 Z M 596.2,514.0 L 603.0,512.4 L 606.0,512.4 L 610.0,511.1 L 620.0,505.2 L 622.4,503.0 L 624.0,498.7 L 628.1,495.0 L 630.2,491.0 L 631.4,486.0 L 632.1,479.0 L 631.1,470.0 L 629.0,466.0 L 627.8,462.0 L 623.3,456.0 L 619.1,452.0 L 616.0,451.5 L 614.2,449.0 L 611.0,447.0 L 598.0,443.8 L 596.5,444.0 L 595.0,445.2 L 590.0,444.6 L 587.0,445.2 L 581.0,445.2 L 578.0,444.6 L 573.0,445.9 L 568.0,448.3 L 564.0,452.4 L 557.6,456.0 L 555.8,458.0 L 554.8,461.0 L 553.0,463.0 L 550.8,468.0 L 549.8,473.0 L 550.3,476.0 L 549.6,484.0 L 551.8,492.0 L 555.1,498.0 L 559.0,503.0 L 564.0,507.2 L 569.0,510.3 L 574.0,512.2 L 581.0,512.3 L 584.0,514.3 L 588.0,513.5 L 591.0,514.4 L 596.2,514.0 Z M 869.0,679.1 L 866.7,678.0 L 868.3,677.0 L 868.1,676.0 L 867.0,675.4 L 866.0,672.2 L 865.0,672.0 L 859.0,675.1 L 855.4,676.0 L 853.0,678.2 L 849.0,677.6 L 847.0,675.8 L 841.0,674.4 L 837.0,675.9 L 836.9,677.0 L 837.7,678.0 L 837.0,679.1 L 832.0,676.0 L 815.0,675.7 L 810.3,670.0 L 805.1,661.0 L 802.6,659.0 L 802.0,656.5 L 798.0,654.5 L 797.0,655.2 L 794.0,660.0 L 792.5,670.0 L 790.8,674.0 L 786.0,676.4 L 782.0,675.5 L 774.0,675.7 L 772.8,674.0 L 773.0,670.0 L 775.4,660.0 L 777.8,642.0 L 777.6,639.0 L 778.9,636.0 L 780.2,626.0 L 781.2,623.0 L 780.7,620.0 L 781.6,618.0 L 783.0,616.9 L 785.0,616.5 L 797.0,616.2 L 800.0,616.9 L 800.5,623.0 L 798.8,630.0 L 799.0,631.4 L 800.0,632.0 L 803.0,631.3 L 810.0,625.5 L 813.4,622.0 L 817.0,616.5 L 836.0,616.5 L 840.0,615.7 L 842.1,617.0 L 841.4,619.0 L 835.0,625.5 L 832.0,626.8 L 829.1,630.0 L 824.0,633.6 L 823.0,635.0 L 822.0,638.6 L 818.0,639.1 L 814.1,642.0 L 814.6,644.0 L 819.3,650.0 L 826.0,661.1 L 829.0,663.8 L 832.0,664.5 L 833.0,665.8 L 833.2,664.0 L 832.0,663.0 L 832.9,661.0 L 832.4,659.0 L 834.0,658.9 L 835.0,657.9 L 837.0,653.5 L 840.9,649.0 L 839.6,644.0 L 840.3,640.0 L 843.8,634.0 L 850.0,629.6 L 854.0,629.4 L 857.0,628.3 L 871.0,628.2 L 876.0,629.7 L 881.0,632.6 L 885.6,639.0 L 884.1,656.0 L 886.4,658.0 L 887.8,662.0 L 890.0,663.2 L 891.0,662.0 L 889.5,657.0 L 891.9,655.0 L 893.0,652.0 L 892.5,649.0 L 894.0,643.0 L 893.2,641.0 L 895.3,638.0 L 895.6,635.0 L 897.2,630.0 L 903.0,627.9 L 906.0,628.5 L 911.0,628.3 L 915.0,629.8 L 916.0,627.5 L 921.0,626.6 L 923.0,627.4 L 926.0,626.6 L 930.0,627.9 L 932.0,628.0 L 930.9,632.0 L 932.5,634.0 L 931.0,635.4 L 929.8,641.0 L 928.0,645.7 L 926.0,646.5 L 917.0,646.8 L 913.9,649.0 L 912.3,651.0 L 910.6,657.0 L 910.5,661.0 L 909.5,665.0 L 909.4,674.0 L 907.0,677.5 L 906.0,678.1 L 903.0,675.9 L 892.0,676.0 L 890.7,675.0 L 889.0,672.0 L 884.0,675.8 L 874.0,675.6 L 872.6,676.0 L 870.0,678.9 L 869.0,679.1 Z M 1093.0,694.3 L 1090.0,693.1 L 1086.0,692.8 L 1083.0,694.0 L 1081.0,693.8 L 1080.2,693.0 L 1079.7,691.0 L 1080.6,678.0 L 1083.1,675.0 L 1083.0,673.0 L 1084.0,672.4 L 1086.5,673.0 L 1085.3,675.0 L 1085.8,676.0 L 1089.0,677.2 L 1089.8,677.0 L 1090.3,676.0 L 1087.4,673.0 L 1089.0,671.8 L 1092.0,673.3 L 1094.5,670.0 L 1094.0,668.6 L 1092.0,669.1 L 1091.0,668.4 L 1089.9,666.0 L 1092.3,664.0 L 1087.9,658.0 L 1088.4,646.0 L 1086.0,639.0 L 1085.0,637.4 L 1084.0,637.2 L 1082.0,638.8 L 1080.0,642.1 L 1077.0,643.3 L 1073.0,643.9 L 1070.9,646.0 L 1071.2,650.0 L 1070.0,653.0 L 1071.4,657.0 L 1071.7,660.0 L 1072.8,661.0 L 1075.0,660.9 L 1077.0,662.1 L 1077.4,663.0 L 1076.8,666.0 L 1078.2,672.0 L 1077.0,674.2 L 1071.9,676.0 L 1070.0,678.5 L 1066.0,678.1 L 1064.0,677.2 L 1061.0,678.2 L 1059.0,677.4 L 1057.0,678.0 L 1055.6,675.0 L 1051.5,672.0 L 1049.2,665.0 L 1047.5,663.0 L 1047.5,662.0 L 1050.3,654.0 L 1051.0,649.2 L 1049.0,646.6 L 1046.0,644.9 L 1045.5,645.0 L 1045.5,647.0 L 1042.9,648.0 L 1041.0,650.1 L 1039.7,655.0 L 1040.0,658.0 L 1039.2,661.0 L 1039.7,662.0 L 1041.0,662.2 L 1044.0,659.9 L 1045.4,662.0 L 1045.6,665.0 L 1044.8,668.0 L 1045.8,671.0 L 1045.7,675.0 L 1045.0,678.3 L 1044.0,678.8 L 1040.0,677.6 L 1038.0,675.9 L 1034.0,676.5 L 1031.0,675.8 L 1025.0,676.1 L 1023.4,673.0 L 1022.0,672.2 L 1014.0,675.1 L 1011.0,677.3 L 1009.0,677.5 L 1001.0,676.5 L 1000.0,676.7 L 997.8,679.0 L 996.0,679.3 L 993.3,677.0 L 993.4,672.0 L 990.7,669.0 L 990.2,665.0 L 986.0,663.2 L 981.8,668.0 L 981.9,670.0 L 981.0,670.9 L 979.0,671.1 L 975.0,673.0 L 971.0,675.3 L 970.1,676.0 L 970.0,677.2 L 966.9,679.0 L 964.0,679.1 L 959.8,676.0 L 957.0,675.1 L 954.0,675.7 L 953.0,677.8 L 951.0,678.9 L 949.8,685.0 L 950.8,688.0 L 948.8,691.0 L 948.7,693.0 L 948.0,693.8 L 944.0,693.7 L 941.0,692.9 L 935.0,693.5 L 933.0,694.5 L 932.0,694.2 L 930.8,692.0 L 929.0,690.7 L 928.3,689.0 L 930.7,686.0 L 929.7,683.0 L 931.8,680.0 L 931.7,676.0 L 933.3,673.0 L 932.8,670.0 L 934.1,668.0 L 934.0,666.5 L 932.6,665.0 L 932.9,664.0 L 935.1,662.0 L 936.4,655.0 L 935.8,650.0 L 937.0,644.0 L 935.7,642.0 L 937.0,639.0 L 936.6,635.0 L 941.0,629.1 L 943.0,627.8 L 945.0,628.2 L 948.0,627.5 L 956.0,628.1 L 958.0,630.5 L 959.0,630.7 L 963.0,628.7 L 974.0,625.9 L 975.1,628.0 L 976.6,629.0 L 982.0,631.3 L 987.0,637.6 L 989.5,639.0 L 990.1,640.0 L 988.8,642.0 L 988.7,644.0 L 990.9,646.0 L 992.0,648.5 L 993.0,648.5 L 994.2,647.0 L 993.8,643.0 L 995.5,640.0 L 995.3,635.0 L 996.0,633.1 L 997.0,632.9 L 1000.0,633.9 L 1010.1,628.0 L 1016.0,627.5 L 1019.0,626.5 L 1023.0,628.1 L 1028.0,628.6 L 1037.0,632.7 L 1039.0,632.3 L 1041.0,632.9 L 1040.4,636.0 L 1041.0,638.6 L 1042.0,638.7 L 1043.7,636.0 L 1044.0,633.6 L 1047.0,630.2 L 1055.0,627.6 L 1056.3,619.0 L 1057.0,617.7 L 1062.0,616.3 L 1067.0,616.4 L 1073.0,615.6 L 1074.3,616.0 L 1075.0,617.0 L 1072.8,626.0 L 1074.0,628.0 L 1080.0,628.7 L 1083.0,630.3 L 1087.0,628.5 L 1089.0,628.4 L 1090.0,626.9 L 1092.1,626.0 L 1094.0,625.6 L 1097.0,626.5 L 1099.0,628.8 L 1101.0,629.1 L 1102.0,629.8 L 1103.6,633.0 L 1106.7,645.0 L 1108.3,647.0 L 1110.0,647.5 L 1111.9,646.0 L 1118.7,632.0 L 1120.2,630.0 L 1126.0,628.6 L 1129.0,629.4 L 1134.0,629.3 L 1137.9,630.0 L 1138.9,631.0 L 1135.8,636.0 L 1134.6,641.0 L 1131.0,644.2 L 1126.8,651.0 L 1125.3,656.0 L 1123.4,658.0 L 1118.9,665.0 L 1118.3,670.0 L 1116.0,671.0 L 1112.4,676.0 L 1110.0,680.9 L 1103.5,688.0 L 1102.0,690.7 L 1100.0,690.2 L 1096.0,691.5 L 1093.0,694.3 Z M 719.0,655.1 L 717.0,655.3 L 714.0,654.7 L 710.0,655.2 L 706.0,654.6 L 701.0,655.3 L 698.0,654.7 L 693.0,655.3 L 690.0,654.7 L 686.0,655.4 L 683.0,654.6 L 678.0,655.2 L 674.0,654.6 L 670.0,655.2 L 660.0,654.5 L 654.0,655.4 L 650.0,654.5 L 646.0,655.1 L 628.0,654.5 L 621.0,655.1 L 594.0,654.5 L 586.0,654.7 L 583.0,655.4 L 578.0,654.6 L 562.0,654.7 L 557.0,655.3 L 554.0,654.7 L 549.0,655.3 L 546.0,654.7 L 530.0,654.6 L 525.0,655.1 L 521.0,654.5 L 517.0,655.3 L 514.0,654.7 L 510.0,655.2 L 505.0,654.5 L 501.0,655.1 L 490.0,654.5 L 486.0,655.0 L 458.0,654.5 L 453.0,655.1 L 434.0,654.6 L 429.0,655.1 L 418.0,654.5 L 406.0,655.2 L 403.0,654.6 L 378.0,654.6 L 373.0,655.3 L 363.0,654.5 L 358.0,655.1 L 354.0,654.5 L 350.0,655.1 L 338.0,654.6 L 334.0,655.2 L 330.0,654.5 L 316.0,654.4 L 314.0,653.4 L 313.7,652.0 L 314.2,650.0 L 314.2,639.0 L 315.0,637.8 L 316.0,637.4 L 696.0,637.2 L 743.0,637.4 L 744.1,638.0 L 744.7,651.0 L 744.2,653.0 L 743.0,654.4 L 722.0,654.6 L 719.0,655.1 Z M 861.9,645.0 L 861.0,643.2 L 858.0,642.2 L 857.0,642.6 L 855.5,645.0 L 856.0,645.9 L 859.0,643.8 L 859.0,645.0 L 860.0,645.9 L 861.9,645.0 Z M 966.9,657.0 L 970.0,654.0 L 968.6,651.0 L 968.9,648.0 L 967.0,644.4 L 965.0,645.8 L 961.0,644.8 L 959.5,647.0 L 955.7,648.0 L 954.8,653.0 L 956.0,656.2 L 958.0,656.3 L 960.0,657.4 L 962.0,656.1 L 966.0,657.5 L 966.9,657.0 Z M 859.5,662.0 L 861.3,661.0 L 861.2,660.0 L 859.4,658.0 L 857.0,658.1 L 856.2,660.0 L 856.6,662.0 L 859.5,662.0 Z M 835.1,672.0 L 835.6,669.0 L 833.0,666.2 L 832.0,669.0 L 833.0,671.1 L 834.0,672.0 L 835.1,672.0 Z" fill="#ffffff" fill-rule="evenodd" />
</svg>