<svg xmlns="http://www.w3.org/2000/svg" viewBox="0 0 1536 1024" width="100%" height="100%">
      <path d="M 454.0,374.0 L 449.0,374.2 L 442.0,373.4 L 434.0,373.2 L 431.0,372.7 L 429.0,371.7 L 428.0,370.5 L 427.6,369.0 L 428.2,365.0 L 428.5,361.0 L 428.3,352.0 L 427.8,345.0 L 426.5,340.0 L 424.8,336.0 L 423.4,334.0 L 422.0,332.8 L 414.0,329.5 L 411.0,328.9 L 405.0,328.5 L 367.0,328.5 L 364.0,328.9 L 362.0,330.0 L 361.0,332.0 L 360.7,335.0 L 360.6,363.0 L 360.9,368.0 L 360.5,370.0 L 360.0,371.0 L 359.0,372.3 L 358.0,373.0 L 356.0,373.7 L 351.0,374.0 L 337.0,373.2 L 330.0,373.2 L 325.0,373.4 L 322.0,373.2 L 317.0,373.2 L 316.0,372.7 L 315.1,372.0 L 314.0,369.8 L 313.4,366.0 L 313.8,361.0 L 313.8,355.0 L 313.5,350.0 L 313.6,326.0 L 313.4,322.0 L 313.3,313.0 L 313.5,292.0 L 313.2,284.0 L 313.9,269.0 L 313.5,263.0 L 314.1,250.0 L 313.9,239.0 L 314.3,237.0 L 315.6,235.0 L 317.0,234.1 L 319.0,233.8 L 327.0,234.3 L 335.0,233.6 L 363.0,233.5 L 370.0,233.1 L 385.0,233.7 L 395.0,232.9 L 401.0,233.5 L 427.0,233.7 L 437.0,234.9 L 441.0,235.6 L 444.0,236.5 L 455.0,241.1 L 461.0,245.0 L 465.7,249.0 L 468.4,252.0 L 469.8,254.0 L 472.6,259.0 L 474.3,263.0 L 475.1,266.0 L 476.0,271.0 L 475.7,277.0 L 474.1,285.0 L 470.0,293.0 L 465.6,299.0 L 464.0,300.4 L 457.1,305.0 L 456.0,306.0 L 455.3,307.0 L 454.9,308.0 L 455.0,309.0 L 455.6,310.0 L 456.7,311.0 L 462.0,314.2 L 465.0,316.8 L 469.0,322.1 L 473.3,330.0 L 474.8,338.0 L 474.9,344.0 L 475.7,349.0 L 475.1,353.0 L 475.2,355.0 L 477.7,367.0 L 477.9,369.0 L 477.7,370.0 L 477.2,371.0 L 476.0,372.0 L 470.0,373.5 L 467.0,373.8 L 460.0,373.5 L 454.0,374.0 Z M 1098.0,375.0 L 1094.0,375.3 L 1088.0,374.6 L 1077.0,374.5 L 1070.0,374.8 L 1065.0,374.5 L 1051.0,374.3 L 1045.0,374.5 L 1042.0,374.2 L 1037.0,372.3 L 1030.0,370.4 L 1024.0,367.7 L 1017.2,365.0 L 1014.0,363.4 L 1011.0,361.4 L 1004.5,356.0 L 1003.0,354.4 L 1000.4,351.0 L 997.0,349.0 L 996.0,348.0 L 995.6,347.0 L 995.1,343.0 L 993.5,337.0 L 992.3,328.0 L 992.4,325.0 L 993.0,323.8 L 994.0,322.6 L 996.0,321.6 L 998.0,321.3 L 1003.0,321.8 L 1016.0,321.2 L 1032.0,321.4 L 1034.1,321.0 L 1035.5,320.0 L 1035.5,319.0 L 1034.3,318.0 L 1030.5,316.0 L 1027.0,314.6 L 1022.0,311.3 L 1015.0,308.6 L 1012.0,307.1 L 1010.6,306.0 L 1007.7,303.0 L 1004.0,300.5 L 1002.7,299.0 L 1000.6,295.0 L 997.3,291.0 L 994.7,285.0 L 994.3,283.0 L 995.5,272.0 L 994.7,268.0 L 994.8,266.0 L 997.0,262.8 L 999.1,259.0 L 1002.3,255.0 L 1005.0,250.9 L 1008.0,247.8 L 1012.0,244.6 L 1016.6,242.0 L 1029.0,237.0 L 1033.0,235.0 L 1035.0,234.4 L 1040.0,234.1 L 1046.0,232.5 L 1052.0,232.8 L 1057.0,232.4 L 1080.0,232.5 L 1088.0,232.3 L 1101.0,233.0 L 1104.0,233.5 L 1108.0,234.6 L 1115.0,235.4 L 1117.0,236.1 L 1122.0,238.8 L 1126.0,239.8 L 1132.7,242.0 L 1133.8,243.0 L 1136.3,246.0 L 1141.0,249.8 L 1147.0,257.0 L 1149.2,261.0 L 1151.5,266.0 L 1152.7,270.0 L 1153.5,275.0 L 1153.5,278.0 L 1153.2,279.0 L 1152.7,280.0 L 1151.0,281.1 L 1149.0,281.5 L 1141.0,282.3 L 1135.0,281.8 L 1122.0,282.2 L 1118.0,282.6 L 1114.0,282.4 L 1109.0,282.9 L 1107.0,282.8 L 1106.0,281.9 L 1105.5,281.0 L 1103.4,276.0 L 1102.0,273.5 L 1100.0,271.4 L 1098.0,270.1 L 1096.0,269.1 L 1094.0,268.5 L 1088.0,268.2 L 1075.0,265.2 L 1070.0,266.0 L 1065.0,266.1 L 1060.0,267.1 L 1055.0,267.1 L 1052.0,267.6 L 1050.0,268.2 L 1048.0,269.3 L 1047.0,270.4 L 1046.1,272.0 L 1045.9,273.0 L 1046.0,275.0 L 1046.8,277.0 L 1047.6,278.0 L 1049.0,279.1 L 1052.0,280.2 L 1055.0,280.4 L 1060.0,280.3 L 1065.0,281.2 L 1071.0,281.4 L 1080.0,283.0 L 1082.0,283.2 L 1084.0,283.0 L 1089.0,281.1 L 1092.0,281.0 L 1094.0,281.6 L 1097.0,283.6 L 1099.0,284.2 L 1107.0,284.6 L 1112.0,286.5 L 1114.0,286.8 L 1118.0,286.8 L 1125.0,288.7 L 1129.0,290.7 L 1133.0,292.1 L 1137.0,294.9 L 1142.0,297.4 L 1145.0,299.5 L 1152.6,306.0 L 1154.0,308.0 L 1156.7,313.0 L 1158.1,317.0 L 1159.3,323.0 L 1159.5,332.0 L 1159.1,336.0 L 1157.9,342.0 L 1156.9,345.0 L 1155.0,347.8 L 1150.0,353.4 L 1140.0,363.2 L 1138.0,364.3 L 1133.0,365.9 L 1130.4,367.0 L 1128.6,368.0 L 1125.0,370.5 L 1124.0,371.0 L 1121.0,371.8 L 1116.0,373.6 L 1108.0,373.7 L 1103.0,374.6 L 1098.0,375.0 Z M 557.0,374.1 L 555.0,374.5 L 551.0,374.2 L 546.0,374.3 L 537.0,373.4 L 529.0,374.2 L 520.0,374.0 L 517.0,373.6 L 515.0,373.0 L 513.4,372.0 L 512.7,371.0 L 512.3,370.0 L 512.1,368.0 L 512.5,361.0 L 512.1,355.0 L 512.4,348.0 L 512.0,330.0 L 512.5,322.0 L 512.3,315.0 L 512.5,303.0 L 512.5,268.0 L 512.3,259.0 L 512.5,240.0 L 512.7,238.0 L 513.5,236.0 L 514.4,235.0 L 516.0,234.1 L 519.0,233.8 L 526.0,233.7 L 531.0,234.0 L 542.0,233.5 L 552.0,233.6 L 555.0,233.9 L 557.0,234.4 L 558.1,235.0 L 559.0,236.0 L 559.5,237.0 L 559.9,239.0 L 559.9,247.0 L 560.3,253.0 L 559.7,262.0 L 559.9,267.0 L 559.6,285.0 L 560.1,292.0 L 559.9,302.0 L 560.1,307.0 L 559.8,312.0 L 560.0,335.0 L 560.3,340.0 L 559.7,358.0 L 560.0,367.0 L 559.7,370.0 L 559.1,372.0 L 558.0,373.4 L 557.0,374.1 Z M 710.0,374.0 L 706.0,374.1 L 699.0,373.6 L 692.0,373.4 L 686.0,373.9 L 678.0,374.0 L 674.0,373.7 L 669.0,374.0 L 663.0,373.6 L 656.0,374.1 L 631.0,374.0 L 625.0,374.2 L 613.0,373.4 L 599.0,373.0 L 597.0,372.7 L 595.0,372.0 L 594.0,371.3 L 593.0,370.2 L 592.1,368.0 L 591.8,363.0 L 592.0,350.0 L 591.8,345.0 L 591.9,331.0 L 592.5,323.0 L 591.6,314.0 L 591.7,305.0 L 592.1,296.0 L 591.6,265.0 L 592.4,243.0 L 593.0,238.0 L 593.9,236.0 L 594.8,235.0 L 596.0,234.2 L 598.0,233.8 L 602.0,233.9 L 609.0,233.5 L 626.0,233.6 L 639.0,233.2 L 648.0,233.5 L 705.0,233.4 L 719.0,234.6 L 732.0,236.7 L 738.0,239.4 L 744.0,241.1 L 746.0,242.2 L 748.0,243.9 L 754.1,250.0 L 755.5,252.0 L 757.1,255.0 L 758.4,258.0 L 759.4,261.0 L 760.3,266.0 L 760.3,273.0 L 759.3,278.0 L 756.9,284.0 L 755.1,287.0 L 752.0,291.0 L 748.7,296.0 L 748.5,297.0 L 749.8,299.0 L 752.0,300.9 L 757.6,304.0 L 759.0,305.0 L 764.3,312.0 L 765.9,315.0 L 768.0,322.0 L 768.5,326.0 L 768.4,336.0 L 767.8,339.0 L 766.7,343.0 L 764.5,348.0 L 761.1,353.0 L 758.7,356.0 L 756.8,358.0 L 753.0,361.3 L 749.5,364.0 L 747.0,365.6 L 745.0,366.5 L 739.0,368.3 L 732.0,371.2 L 728.0,372.4 L 721.0,373.2 L 714.0,373.6 L 710.0,374.0 Z M 974.0,374.2 L 971.0,374.7 L 963.0,374.4 L 958.0,373.9 L 947.0,374.4 L 942.0,374.2 L 936.0,374.2 L 933.0,373.7 L 931.0,372.6 L 929.5,371.0 L 927.5,366.0 L 922.9,357.0 L 921.7,353.0 L 921.0,351.7 L 920.0,350.5 L 919.0,349.8 L 917.0,349.3 L 915.0,349.1 L 905.0,349.0 L 894.0,350.0 L 887.0,349.3 L 882.0,349.5 L 873.0,349.0 L 867.0,349.8 L 858.0,349.7 L 850.0,350.5 L 848.0,351.0 L 847.0,351.5 L 845.4,353.0 L 844.8,354.0 L 843.3,358.0 L 840.0,364.0 L 837.0,371.0 L 835.2,373.0 L 833.4,374.0 L 831.0,374.3 L 826.0,373.7 L 820.0,374.4 L 815.0,373.9 L 810.0,373.7 L 804.0,372.9 L 798.0,373.6 L 795.0,372.9 L 794.0,372.4 L 793.0,371.5 L 792.3,370.0 L 792.3,369.0 L 792.8,367.0 L 795.0,362.8 L 797.4,357.0 L 802.9,346.0 L 808.9,333.0 L 812.0,327.0 L 813.5,323.0 L 815.8,318.0 L 817.5,313.0 L 821.0,307.4 L 823.4,303.0 L 826.4,294.0 L 827.4,292.0 L 830.7,287.0 L 832.5,282.0 L 836.0,274.0 L 839.0,270.0 L 840.1,268.0 L 842.2,262.0 L 847.5,252.0 L 850.1,245.0 L 854.0,238.0 L 855.7,236.0 L 858.0,234.9 L 860.0,234.6 L 869.0,234.0 L 874.0,234.2 L 890.0,233.5 L 901.0,234.2 L 909.0,234.3 L 911.0,235.0 L 912.0,235.9 L 921.9,254.0 L 925.2,259.0 L 926.9,264.0 L 929.3,270.0 L 930.4,272.0 L 933.4,276.0 L 935.0,282.0 L 936.3,285.0 L 938.0,287.7 L 941.3,292.0 L 943.3,298.0 L 948.8,306.0 L 950.4,313.0 L 951.4,316.0 L 955.0,322.0 L 957.9,329.0 L 959.9,333.0 L 964.1,340.0 L 966.0,346.0 L 967.3,349.0 L 969.1,352.0 L 973.0,356.0 L 973.6,357.0 L 974.2,359.0 L 974.4,363.0 L 975.0,365.0 L 976.6,369.0 L 976.9,371.0 L 976.6,372.0 L 975.8,373.0 L 974.0,374.2 Z M 667.0,285.0 L 674.0,284.1 L 679.0,284.2 L 685.0,284.8 L 692.0,284.5 L 704.0,283.1 L 706.0,282.4 L 709.0,280.9 L 710.2,280.0 L 711.0,279.0 L 711.4,278.0 L 711.7,276.0 L 711.4,273.0 L 710.2,271.0 L 708.0,269.6 L 703.0,268.1 L 700.0,267.6 L 687.0,267.7 L 682.0,267.0 L 676.0,267.1 L 668.0,266.5 L 664.0,266.6 L 659.0,267.1 L 652.0,266.5 L 647.0,266.9 L 646.0,267.3 L 645.0,268.1 L 644.5,269.0 L 644.0,271.0 L 644.0,275.0 L 644.4,278.0 L 644.9,280.0 L 646.3,282.0 L 648.0,283.0 L 650.0,283.6 L 653.0,283.7 L 657.0,283.5 L 658.0,283.6 L 663.0,285.1 L 667.0,285.0 Z M 411.8,293.0 L 419.0,291.5 L 421.0,290.8 L 425.4,288.0 L 427.3,286.0 L 427.8,285.0 L 428.2,283.0 L 428.2,280.0 L 427.9,278.0 L 427.1,276.0 L 426.0,274.2 L 425.0,273.0 L 423.6,272.0 L 418.0,269.5 L 414.0,268.6 L 411.0,268.4 L 404.0,269.1 L 397.0,267.9 L 394.0,267.6 L 385.0,268.1 L 379.0,267.9 L 371.0,268.6 L 365.0,268.1 L 364.0,268.2 L 362.4,269.0 L 361.5,270.0 L 361.0,271.0 L 360.6,274.0 L 360.6,288.0 L 361.3,291.0 L 362.0,292.0 L 363.0,292.7 L 365.0,293.0 L 370.0,292.1 L 372.0,292.0 L 390.0,293.3 L 398.0,293.0 L 411.8,293.0 Z M 894.0,313.0 L 896.0,312.6 L 897.0,312.2 L 897.9,311.0 L 898.0,310.0 L 897.9,308.0 L 896.6,303.0 L 893.9,297.0 L 890.0,290.0 L 889.2,288.0 L 888.3,284.0 L 887.0,281.2 L 886.0,279.9 L 884.0,278.5 L 883.0,278.3 L 882.0,278.6 L 881.0,279.4 L 879.8,281.0 L 876.2,290.0 L 872.6,296.0 L 868.2,306.0 L 867.7,308.0 L 867.8,310.0 L 868.3,311.0 L 869.2,312.0 L 871.0,312.9 L 873.0,313.3 L 880.0,313.6 L 894.0,313.0 Z M 658.5,339.0 L 669.0,338.6 L 678.0,337.4 L 683.0,338.1 L 692.0,338.6 L 697.0,338.4 L 702.0,337.8 L 708.0,337.7 L 711.0,337.4 L 715.2,336.0 L 716.8,335.0 L 717.8,334.0 L 718.4,333.0 L 719.2,331.0 L 719.6,328.0 L 719.6,326.0 L 719.0,324.1 L 718.4,323.0 L 716.6,321.0 L 714.0,319.5 L 712.0,318.9 L 710.0,318.6 L 701.0,318.6 L 697.0,318.4 L 693.0,318.5 L 688.0,317.7 L 682.0,317.9 L 676.0,317.4 L 671.0,317.8 L 661.0,317.6 L 656.0,318.1 L 650.0,317.7 L 648.0,318.0 L 646.0,318.9 L 645.0,320.0 L 644.3,322.0 L 643.7,328.0 L 643.8,334.0 L 644.4,336.0 L 645.0,337.0 L 646.2,338.0 L 648.0,338.7 L 658.5,339.0 Z M 1081.1,340.0 L 1088.0,339.3 L 1091.0,337.5 L 1093.0,336.9 L 1097.0,336.8 L 1102.0,336.3 L 1105.0,335.6 L 1106.0,335.0 L 1106.9,334.0 L 1107.3,333.0 L 1107.5,332.0 L 1107.1,330.0 L 1106.0,328.4 L 1105.0,327.6 L 1101.0,325.8 L 1098.0,325.0 L 1093.0,324.8 L 1087.0,322.7 L 1084.0,322.0 L 1051.0,318.3 L 1049.0,318.4 L 1047.4,319.0 L 1046.1,320.0 L 1045.5,321.0 L 1045.3,322.0 L 1045.8,326.0 L 1045.7,329.0 L 1046.1,331.0 L 1047.0,332.8 L 1048.0,334.0 L 1050.0,335.4 L 1054.0,336.8 L 1062.0,338.3 L 1064.0,338.2 L 1068.0,337.2 L 1069.0,337.4 L 1072.9,340.0 L 1075.0,340.6 L 1078.0,340.6 L 1081.1,340.0 Z M 598.0,550.0 L 589.0,550.4 L 585.0,550.1 L 581.0,550.2 L 568.0,549.1 L 563.0,549.0 L 559.0,547.3 L 555.0,546.2 L 550.0,543.7 L 544.0,541.8 L 538.0,539.0 L 526.0,531.1 L 521.0,526.7 L 516.0,523.2 L 514.7,522.0 L 514.0,521.0 L 507.3,509.0 L 503.1,497.0 L 500.7,492.0 L 500.3,490.0 L 500.3,487.0 L 499.6,484.0 L 499.4,482.0 L 500.5,472.0 L 500.7,468.0 L 505.8,452.0 L 509.0,444.7 L 515.0,435.8 L 519.0,432.4 L 524.5,427.0 L 533.0,420.8 L 544.0,414.5 L 546.0,413.6 L 552.0,412.0 L 559.0,409.6 L 561.0,409.1 L 573.0,407.7 L 580.0,407.4 L 588.0,406.5 L 591.0,406.7 L 597.0,407.4 L 603.0,407.6 L 612.0,408.6 L 621.0,410.0 L 626.0,411.1 L 632.0,413.7 L 638.0,415.9 L 641.0,417.4 L 644.0,419.2 L 657.0,428.0 L 664.0,435.0 L 668.1,440.0 L 674.5,450.0 L 676.1,453.0 L 677.4,456.0 L 679.8,466.0 L 680.3,469.0 L 680.7,484.0 L 680.4,489.0 L 677.4,502.0 L 676.4,505.0 L 670.0,516.0 L 668.6,518.0 L 658.4,528.0 L 653.0,532.7 L 647.0,536.6 L 644.0,539.1 L 642.0,540.3 L 628.0,545.1 L 618.0,547.8 L 613.0,548.6 L 608.0,548.9 L 598.0,550.0 Z M 781.0,545.3 L 780.0,545.7 L 778.0,545.8 L 772.0,545.6 L 766.0,545.8 L 746.0,545.7 L 738.0,545.2 L 737.0,544.9 L 735.7,544.0 L 734.8,542.0 L 734.5,539.0 L 734.5,454.0 L 734.4,451.0 L 734.0,449.4 L 733.0,447.8 L 732.0,447.2 L 730.0,446.8 L 726.0,447.1 L 722.0,446.9 L 717.0,447.1 L 712.0,446.6 L 708.0,446.5 L 693.0,447.0 L 687.1,446.0 L 684.9,445.0 L 684.1,444.0 L 683.6,443.0 L 683.4,441.0 L 683.4,415.0 L 683.6,413.0 L 684.0,411.6 L 685.0,410.1 L 686.0,409.3 L 688.0,408.7 L 690.0,408.5 L 711.0,408.7 L 720.0,408.3 L 743.0,408.5 L 751.0,408.0 L 766.0,408.5 L 800.0,408.3 L 806.0,408.6 L 824.0,408.2 L 832.0,408.7 L 834.0,409.7 L 835.0,410.8 L 835.9,413.0 L 836.1,415.0 L 835.8,423.0 L 836.1,428.0 L 835.9,435.0 L 836.2,441.0 L 836.0,443.0 L 835.5,444.0 L 834.0,445.6 L 832.0,446.6 L 830.0,446.9 L 825.0,446.8 L 821.0,447.0 L 813.0,446.5 L 789.0,446.7 L 786.0,447.3 L 785.0,448.0 L 784.0,449.6 L 783.7,451.0 L 783.5,454.0 L 783.5,539.0 L 783.4,541.0 L 782.9,543.0 L 782.0,544.6 L 781.0,545.3 Z M 990.0,546.0 L 988.0,546.2 L 985.0,546.0 L 980.0,546.2 L 976.0,546.0 L 971.0,546.1 L 960.0,545.5 L 949.0,545.9 L 941.0,545.7 L 934.0,546.1 L 915.0,545.5 L 878.0,545.8 L 859.0,545.5 L 857.0,545.0 L 856.0,544.4 L 855.0,542.9 L 854.5,540.0 L 854.4,501.0 L 854.5,416.0 L 855.0,412.0 L 856.0,410.2 L 858.0,409.1 L 863.0,408.4 L 905.0,408.5 L 913.0,408.2 L 931.0,408.5 L 941.0,408.3 L 950.0,407.7 L 957.0,408.5 L 986.0,408.7 L 988.0,409.1 L 989.4,410.0 L 990.1,411.0 L 990.5,413.0 L 990.7,441.0 L 990.3,443.0 L 989.9,444.0 L 989.0,445.1 L 988.0,445.7 L 986.0,446.1 L 981.0,445.7 L 973.0,446.4 L 964.0,446.4 L 957.0,445.6 L 947.0,446.5 L 942.0,446.3 L 923.0,446.4 L 917.0,445.9 L 907.0,446.2 L 905.0,446.6 L 904.0,447.3 L 903.5,448.0 L 902.8,450.0 L 902.7,453.0 L 902.8,455.0 L 903.6,457.0 L 905.0,458.0 L 907.0,458.4 L 914.0,458.3 L 922.0,458.5 L 933.0,457.9 L 942.0,458.2 L 948.0,457.8 L 954.0,458.3 L 958.0,458.3 L 973.0,457.6 L 978.0,458.1 L 984.0,457.9 L 986.0,458.4 L 987.0,459.1 L 987.7,460.0 L 988.4,462.0 L 988.0,470.0 L 988.9,477.0 L 988.9,483.0 L 989.9,490.0 L 989.6,492.0 L 989.0,493.0 L 987.3,494.0 L 986.0,494.5 L 982.0,495.1 L 969.0,495.1 L 957.0,495.4 L 944.0,495.1 L 929.0,495.5 L 918.0,495.2 L 913.0,494.7 L 907.0,494.9 L 905.0,495.3 L 903.8,496.0 L 903.1,497.0 L 902.8,498.0 L 902.6,500.0 L 902.9,507.0 L 903.3,509.0 L 904.0,510.1 L 905.0,510.9 L 907.0,511.5 L 909.0,511.6 L 949.0,511.4 L 986.0,511.5 L 990.0,511.8 L 996.0,513.4 L 997.0,514.1 L 997.4,515.0 L 997.4,516.0 L 995.8,521.0 L 995.8,524.0 L 995.1,529.0 L 996.0,533.0 L 994.8,537.0 L 994.7,542.0 L 994.0,543.5 L 993.0,544.6 L 992.0,545.2 L 990.0,546.0 Z M 319.0,546.0 L 317.0,546.0 L 316.0,545.6 L 315.0,544.8 L 314.0,543.0 L 313.6,539.0 L 313.7,486.0 L 313.5,481.0 L 313.8,473.0 L 313.3,462.0 L 314.1,451.0 L 313.6,435.0 L 313.8,423.0 L 314.3,414.0 L 315.0,411.4 L 316.0,410.0 L 317.0,409.4 L 318.0,409.1 L 329.0,409.2 L 336.0,408.7 L 348.0,409.3 L 356.0,408.7 L 358.0,409.2 L 359.2,410.0 L 360.0,411.0 L 360.5,412.0 L 360.8,414.0 L 360.5,422.0 L 360.6,452.0 L 360.8,454.0 L 361.5,456.0 L 362.2,457.0 L 363.0,457.6 L 364.0,458.1 L 366.0,458.4 L 378.0,457.8 L 384.0,457.8 L 390.0,457.6 L 405.0,458.0 L 412.0,458.4 L 419.0,457.8 L 427.2,458.0 L 429.0,457.5 L 429.7,457.0 L 430.5,456.0 L 430.9,455.0 L 431.3,453.0 L 431.5,450.0 L 431.6,415.0 L 431.9,413.0 L 432.4,411.0 L 433.0,410.0 L 434.0,409.2 L 436.0,408.5 L 438.0,408.4 L 446.0,408.9 L 453.0,408.8 L 460.0,409.2 L 470.0,408.3 L 473.0,408.2 L 476.0,408.5 L 477.0,408.8 L 478.0,409.5 L 479.0,411.1 L 479.5,415.0 L 479.7,435.0 L 479.5,469.0 L 479.7,478.0 L 480.2,485.0 L 479.7,494.0 L 480.3,501.0 L 479.7,512.0 L 480.1,523.0 L 479.8,528.0 L 480.0,532.0 L 479.7,540.0 L 479.2,543.0 L 478.8,544.0 L 478.0,545.0 L 477.0,545.6 L 475.0,545.9 L 471.0,545.7 L 454.0,545.6 L 438.0,545.8 L 435.0,545.6 L 433.0,544.8 L 432.3,544.0 L 431.8,543.0 L 431.5,541.0 L 431.4,499.0 L 430.9,497.0 L 430.0,495.7 L 429.0,495.1 L 427.0,494.7 L 422.0,495.0 L 417.0,494.6 L 405.0,494.8 L 400.0,494.6 L 389.0,494.9 L 384.0,494.6 L 374.0,494.8 L 367.0,494.5 L 365.0,494.6 L 363.0,495.1 L 361.7,496.0 L 360.8,498.0 L 360.6,500.0 L 360.8,510.0 L 360.5,527.0 L 360.8,536.0 L 360.4,542.0 L 360.1,543.0 L 359.5,544.0 L 358.1,545.0 L 357.0,545.4 L 353.0,545.8 L 343.0,545.9 L 332.0,545.5 L 323.0,545.6 L 319.0,546.0 Z M 1045.0,547.0 L 1044.0,547.3 L 1043.0,547.2 L 1039.0,546.1 L 1035.0,546.0 L 1027.0,546.0 L 1022.0,546.8 L 1020.0,546.9 L 1019.0,546.7 L 1018.0,546.1 L 1017.1,545.0 L 1016.0,542.0 L 1015.5,532.0 L 1016.0,518.0 L 1015.5,499.0 L 1015.5,479.0 L 1016.0,470.0 L 1015.8,457.0 L 1016.1,451.0 L 1015.8,445.0 L 1015.9,437.0 L 1015.6,429.0 L 1016.0,424.0 L 1016.1,418.0 L 1016.9,413.0 L 1018.0,410.8 L 1019.0,409.8 L 1021.0,409.0 L 1040.0,408.2 L 1051.0,409.3 L 1058.0,408.6 L 1063.0,408.4 L 1066.2,409.0 L 1068.0,410.0 L 1068.8,411.0 L 1069.3,413.0 L 1068.4,418.0 L 1068.3,420.0 L 1069.0,434.0 L 1068.7,440.0 L 1069.0,451.0 L 1068.5,460.0 L 1069.1,468.0 L 1068.6,474.0 L 1069.0,497.0 L 1068.7,503.0 L 1069.0,506.0 L 1069.5,508.0 L 1070.0,509.0 L 1071.0,510.1 L 1072.0,510.7 L 1074.0,511.3 L 1082.0,511.8 L 1092.0,511.5 L 1116.0,511.7 L 1139.0,511.5 L 1146.0,511.8 L 1150.0,511.7 L 1152.0,512.0 L 1153.8,513.0 L 1154.5,514.0 L 1155.2,516.0 L 1155.5,532.0 L 1154.9,537.0 L 1154.8,542.0 L 1154.0,544.1 L 1153.0,544.9 L 1152.0,545.3 L 1142.0,546.1 L 1130.0,545.7 L 1118.0,546.3 L 1108.0,545.8 L 1102.0,546.4 L 1097.0,546.1 L 1092.0,546.7 L 1084.0,545.8 L 1074.0,545.7 L 1069.0,546.3 L 1065.0,546.0 L 1058.0,545.9 L 1051.0,545.6 L 1048.0,545.9 L 1045.0,547.0 Z M 594.2,514.0 L 606.0,512.1 L 609.0,511.2 L 615.0,508.1 L 619.0,505.6 L 621.0,504.1 L 622.0,503.0 L 624.9,498.0 L 627.6,495.0 L 629.0,493.0 L 630.6,489.0 L 631.4,485.0 L 631.8,479.0 L 631.5,474.0 L 631.0,471.0 L 627.4,462.0 L 624.7,458.0 L 622.0,455.1 L 620.0,453.3 L 616.3,451.0 L 613.0,448.4 L 611.0,447.3 L 604.0,445.2 L 599.0,444.5 L 593.0,444.8 L 579.0,445.0 L 576.0,445.4 L 573.0,446.1 L 568.9,448.0 L 564.0,452.0 L 558.0,456.0 L 556.2,458.0 L 552.3,465.0 L 550.7,469.0 L 550.2,473.0 L 549.8,483.0 L 550.2,486.0 L 551.2,490.0 L 552.4,493.0 L 553.5,495.0 L 558.0,501.5 L 560.0,503.5 L 564.0,507.0 L 568.0,509.6 L 572.0,511.4 L 575.0,512.1 L 580.0,512.6 L 585.0,513.6 L 592.0,514.1 L 594.2,514.0 Z M 870.0,677.1 L 869.0,677.0 L 868.0,676.6 L 865.2,674.0 L 864.0,673.7 L 862.0,674.1 L 854.0,677.1 L 852.0,677.6 L 850.0,677.4 L 845.0,675.5 L 842.0,675.0 L 840.0,675.1 L 837.0,676.3 L 835.0,676.7 L 827.0,675.7 L 818.0,675.8 L 816.0,675.6 L 814.0,674.5 L 811.9,672.0 L 810.4,670.0 L 806.2,663.0 L 804.7,661.0 L 801.0,657.3 L 800.0,656.7 L 799.0,656.4 L 798.0,656.5 L 797.0,657.0 L 796.0,658.0 L 794.6,660.0 L 793.8,662.0 L 792.9,668.0 L 792.1,671.0 L 791.0,673.0 L 789.0,674.9 L 787.0,675.7 L 785.0,676.0 L 776.0,675.4 L 774.0,674.6 L 773.4,674.0 L 772.9,673.0 L 772.8,671.0 L 775.3,660.0 L 776.2,654.0 L 777.9,639.0 L 779.6,630.0 L 780.9,621.0 L 781.7,619.0 L 783.0,617.6 L 784.0,617.1 L 786.0,616.6 L 796.0,616.4 L 798.4,617.0 L 799.5,618.0 L 800.3,620.0 L 800.4,622.0 L 799.8,627.0 L 799.8,629.0 L 800.1,630.0 L 801.0,630.7 L 802.0,630.7 L 804.0,629.8 L 810.2,625.0 L 812.3,623.0 L 816.0,618.4 L 818.0,617.1 L 820.0,616.6 L 823.0,616.4 L 838.0,616.5 L 840.0,617.1 L 840.6,618.0 L 840.6,619.0 L 840.1,620.0 L 836.0,625.4 L 826.0,632.1 L 824.0,634.0 L 822.0,637.0 L 821.0,638.0 L 817.0,640.0 L 815.8,641.0 L 815.3,642.0 L 815.1,643.0 L 815.7,645.0 L 817.0,647.0 L 820.3,651.0 L 825.1,659.0 L 827.0,661.3 L 829.0,662.6 L 830.0,662.9 L 831.0,663.0 L 832.0,662.2 L 833.7,659.0 L 840.1,649.0 L 840.3,647.0 L 839.9,644.0 L 840.0,642.0 L 840.5,640.0 L 842.1,637.0 L 843.4,635.0 L 845.0,633.4 L 848.0,631.1 L 850.0,630.0 L 858.0,628.3 L 870.0,628.4 L 872.0,628.6 L 875.0,629.4 L 878.0,630.7 L 880.0,632.1 L 882.0,633.9 L 883.8,636.0 L 885.0,638.0 L 885.3,639.0 L 885.5,642.0 L 884.8,649.0 L 884.7,654.0 L 885.0,655.4 L 886.0,657.2 L 887.0,658.2 L 888.0,658.8 L 889.0,658.5 L 890.0,657.2 L 892.0,653.3 L 892.5,651.0 L 893.7,642.0 L 894.2,640.0 L 896.7,632.0 L 898.0,630.0 L 899.0,629.3 L 902.0,628.3 L 910.0,628.1 L 914.0,628.3 L 919.0,627.4 L 925.0,626.7 L 927.0,626.9 L 929.0,627.4 L 930.3,628.0 L 931.0,628.7 L 931.7,631.0 L 931.8,635.0 L 930.3,641.0 L 928.6,644.0 L 927.7,645.0 L 926.0,646.0 L 924.0,646.4 L 919.0,646.8 L 916.0,647.8 L 914.0,649.3 L 912.2,652.0 L 911.5,654.0 L 910.8,657.0 L 909.2,673.0 L 908.4,675.0 L 907.5,676.0 L 906.0,676.8 L 905.0,676.8 L 900.0,676.1 L 894.0,676.0 L 892.0,675.4 L 889.0,673.7 L 888.0,673.6 L 883.0,675.6 L 875.0,675.8 L 870.0,677.1 Z M 1093.0,693.3 L 1091.0,693.4 L 1087.0,693.1 L 1084.0,693.3 L 1082.0,693.0 L 1080.8,692.0 L 1080.0,690.0 L 1080.6,680.0 L 1081.4,677.0 L 1082.0,676.0 L 1083.0,675.1 L 1084.0,674.7 L 1088.0,674.4 L 1089.1,674.0 L 1091.5,672.0 L 1092.1,671.0 L 1092.3,670.0 L 1090.8,663.0 L 1088.7,658.0 L 1088.4,648.0 L 1087.9,645.0 L 1086.0,640.6 L 1085.0,639.3 L 1084.0,638.9 L 1083.0,639.1 L 1079.0,642.2 L 1074.0,644.0 L 1073.0,644.5 L 1072.0,645.5 L 1071.2,647.0 L 1070.3,652.0 L 1070.4,654.0 L 1070.8,656.0 L 1071.6,658.0 L 1072.2,659.0 L 1075.0,661.2 L 1075.9,662.0 L 1076.5,663.0 L 1077.1,665.0 L 1077.9,672.0 L 1077.6,673.0 L 1076.9,674.0 L 1076.0,674.7 L 1070.0,677.4 L 1068.0,677.7 L 1061.0,677.5 L 1059.0,677.3 L 1057.0,676.6 L 1054.0,674.3 L 1051.8,672.0 L 1050.5,670.0 L 1049.0,666.8 L 1048.0,665.2 L 1047.0,664.5 L 1046.0,665.6 L 1045.6,667.0 L 1045.3,669.0 L 1045.3,673.0 L 1045.0,675.0 L 1044.0,676.8 L 1043.0,677.3 L 1041.0,677.3 L 1037.0,676.5 L 1027.0,676.0 L 1025.0,675.4 L 1022.0,674.0 L 1021.0,673.8 L 1017.0,674.5 L 1011.0,676.7 L 1009.0,677.2 L 1007.0,677.2 L 1002.0,676.8 L 1000.0,677.3 L 998.0,678.0 L 996.0,678.1 L 995.0,677.7 L 994.0,676.5 L 992.7,672.0 L 989.7,666.0 L 988.9,665.0 L 988.0,664.4 L 987.0,664.2 L 986.0,664.4 L 985.0,665.0 L 984.0,666.0 L 981.0,669.7 L 980.0,670.5 L 975.7,673.0 L 972.0,675.6 L 967.0,678.2 L 965.0,678.5 L 964.0,678.4 L 962.6,678.0 L 959.0,676.3 L 957.0,675.8 L 955.0,676.0 L 953.2,677.0 L 952.0,678.4 L 950.9,681.0 L 950.4,684.0 L 950.1,688.0 L 949.5,690.0 L 948.2,692.0 L 947.0,692.8 L 945.0,693.1 L 941.0,693.1 L 935.0,693.6 L 933.0,693.4 L 932.0,693.0 L 931.0,692.2 L 930.1,691.0 L 929.7,690.0 L 929.6,688.0 L 930.4,683.0 L 932.8,672.0 L 933.6,665.0 L 935.3,660.0 L 936.0,656.0 L 936.4,646.0 L 936.2,641.0 L 936.5,637.0 L 937.1,635.0 L 938.7,632.0 L 940.3,630.0 L 942.0,628.7 L 944.0,628.1 L 948.0,627.7 L 953.0,628.0 L 955.0,628.3 L 958.0,629.3 L 960.0,629.5 L 970.0,626.8 L 973.0,626.8 L 974.0,627.1 L 980.0,630.5 L 982.2,632.0 L 987.9,638.0 L 989.1,640.0 L 990.0,643.0 L 991.0,644.6 L 992.0,645.2 L 993.0,644.7 L 994.0,642.6 L 995.0,640.0 L 996.0,636.0 L 997.0,634.6 L 998.0,634.0 L 1003.0,632.2 L 1011.0,628.1 L 1014.0,627.4 L 1018.0,626.9 L 1020.0,627.1 L 1027.0,628.4 L 1030.0,629.3 L 1042.0,634.7 L 1043.0,634.3 L 1045.4,632.0 L 1047.0,630.7 L 1049.0,629.7 L 1052.0,628.7 L 1054.0,627.5 L 1055.0,626.0 L 1055.4,625.0 L 1056.6,620.0 L 1057.0,619.0 L 1058.0,617.8 L 1059.0,617.2 L 1061.0,616.6 L 1070.0,616.0 L 1072.0,616.2 L 1073.0,616.5 L 1073.7,617.0 L 1074.4,618.0 L 1074.7,620.0 L 1073.7,625.0 L 1073.9,626.0 L 1074.6,627.0 L 1076.0,627.8 L 1082.0,629.2 L 1084.0,629.4 L 1092.0,626.9 L 1094.0,626.6 L 1097.0,627.0 L 1100.0,628.2 L 1101.8,630.0 L 1103.0,632.0 L 1103.8,634.0 L 1105.0,639.0 L 1106.0,642.1 L 1107.6,645.0 L 1109.0,646.0 L 1110.0,646.1 L 1111.0,645.5 L 1112.0,644.4 L 1118.0,633.0 L 1119.8,631.0 L 1121.0,630.1 L 1123.0,629.3 L 1126.0,628.8 L 1134.0,629.4 L 1136.0,629.9 L 1137.0,630.6 L 1137.5,631.0 L 1137.8,632.0 L 1137.8,633.0 L 1134.1,641.0 L 1130.0,646.2 L 1128.0,649.2 L 1126.5,652.0 L 1124.4,658.0 L 1120.4,663.0 L 1119.4,665.0 L 1118.4,668.0 L 1117.4,670.0 L 1113.0,675.8 L 1109.2,682.0 L 1107.0,684.6 L 1102.0,689.6 L 1093.0,693.3 Z M 719.0,655.0 L 706.0,654.8 L 702.0,655.1 L 687.0,655.1 L 682.0,654.8 L 670.0,654.9 L 661.0,654.6 L 654.0,655.1 L 649.0,654.7 L 628.0,654.6 L 621.0,654.9 L 605.0,654.5 L 595.0,654.5 L 583.0,655.1 L 578.0,654.8 L 571.0,654.7 L 550.0,655.1 L 542.0,654.7 L 521.0,654.8 L 517.0,655.0 L 510.0,654.9 L 505.0,654.6 L 500.0,654.9 L 459.0,654.5 L 452.0,654.9 L 435.0,654.7 L 429.0,654.9 L 424.0,654.6 L 406.0,654.9 L 379.0,654.7 L 373.0,655.1 L 363.0,654.6 L 358.0,654.8 L 339.0,654.7 L 334.0,654.9 L 329.0,654.6 L 320.0,654.5 L 317.0,654.1 L 315.1,653.0 L 314.4,652.0 L 314.0,650.0 L 313.9,648.0 L 314.4,641.0 L 315.0,639.3 L 316.0,638.3 L 317.0,637.9 L 320.0,637.5 L 435.0,637.5 L 451.0,637.2 L 458.0,637.5 L 471.0,637.5 L 477.0,637.2 L 484.0,637.5 L 493.0,637.0 L 499.0,637.4 L 509.0,637.5 L 696.0,637.3 L 739.0,637.5 L 742.0,638.0 L 743.4,639.0 L 744.0,640.0 L 744.4,642.0 L 744.6,649.0 L 744.3,651.0 L 744.0,652.0 L 743.0,653.3 L 742.0,654.0 L 740.0,654.4 L 719.0,655.0 Z M 965.6,657.0 L 967.0,656.4 L 968.0,655.4 L 969.0,653.3 L 968.9,650.0 L 968.4,648.0 L 967.8,647.0 L 967.0,646.2 L 966.0,645.7 L 964.0,645.4 L 962.0,645.5 L 959.0,646.6 L 956.9,648.0 L 956.1,649.0 L 955.6,650.0 L 955.3,652.0 L 955.6,654.0 L 956.0,655.0 L 956.8,656.0 L 958.0,656.8 L 960.0,657.5 L 964.0,657.4 L 965.6,657.0 Z M 1046.8,661.0 L 1048.0,658.9 L 1049.5,655.0 L 1050.1,653.0 L 1050.4,651.0 L 1050.0,649.0 L 1049.4,648.0 L 1048.2,647.0 L 1047.0,646.6 L 1044.9,647.0 L 1044.0,647.6 L 1042.7,649.0 L 1042.0,650.1 L 1041.1,653.0 L 1040.6,657.0 L 1040.9,659.0 L 1042.0,660.4 L 1046.0,661.7 L 1046.8,661.0 Z" fill="#ffffff" fill-rule="evenodd" />
    </svg>